<!DOCTYPE svg PUBLIC "-//W3C//DTD SVG 20010904//EN" "http://www.w3.org/TR/2001/REC-SVG-20010904/DTD/svg10.dtd">
<svg version="1.0" xmlns="http://www.w3.org/2000/svg" width="150px" height="150px" viewBox="0 0 1500 1500" preserveAspectRatio="xMidYMid meet">
<g id="layer101" fill="#0083ff" stroke="none">
 <path d="M355 1457 c-40 -39 -45 -48 -45 -87 l0 -44 287 -288 288 -288 -288 -288 c-280 -281 -287 -289 -287 -328 0 -34 7 -46 48 -87 41 -40 54 -47 87 -47 39 0 48 8 392 353 l353 352 0 45 1 45 -358 352 c-340 335 -360 352 -395 353 -31 0 -46 -8 -83 -43z"/>
 </g>

</svg>