<svg width="1440" height="565" viewBox="0 0 1440 565" fill="none" xmlns="http://www.w3.org/2000/svg">
<path d="M176.178 338.139C176.178 335.914 177.982 334.11 180.207 334.11C182.431 334.11 184.235 335.914 184.235 338.139C184.235 340.363 182.431 342.167 180.207 342.167C178.007 342.167 176.178 340.363 176.178 338.139Z" fill="url(#paint0_linear)"/>
<path d="M180.899 246.82H179.564V335.791H180.899V246.82Z" fill="url(#paint1_linear)"/>
<path d="M-6.55829 228.581C-6.55829 226.357 -4.75415 224.552 -2.52988 224.552C-0.305605 224.552 1.49852 226.357 1.49852 228.581C1.49852 230.805 -0.305605 232.609 -2.52988 232.609C-4.75415 232.609 -6.55829 230.805 -6.55829 228.581Z" fill="url(#paint2_linear)"/>
<path d="M43.5126 133.901C43.5126 131.677 45.3167 129.873 47.541 129.873C49.7653 129.873 51.5694 131.677 51.5694 133.901C51.5694 136.125 49.7653 137.929 47.541 137.929C45.3167 137.929 43.5126 136.125 43.5126 133.901Z" fill="url(#paint3_linear)"/>
<path d="M48.2329 42.5822H46.8984V131.553H48.2329V42.5822Z" fill="url(#paint4_linear)"/>
<path d="M83.7472 154.34C83.7472 152.115 85.5513 150.311 87.7756 150.311C89.9999 150.311 91.804 152.115 91.804 154.34C91.804 156.564 89.9999 158.368 87.7756 158.368C85.5761 158.393 83.7472 156.589 83.7472 154.34Z" fill="url(#paint5_linear)"/>
<path d="M88.4676 63.0455H87.133V152.041H88.4676V63.0455Z" fill="url(#paint6_linear)"/>
<path d="M149.388 384.082C149.388 381.858 151.192 380.054 153.416 380.054C155.641 380.054 157.445 381.858 157.445 384.082C157.445 386.307 155.641 388.111 153.416 388.111C151.192 388.111 149.388 386.307 149.388 384.082Z" fill="url(#paint7_linear)"/>
<path d="M154.108 292.764H152.774V381.735H154.108V292.764Z" fill="url(#paint8_linear)"/>
<path d="M211.742 124.954C211.742 122.73 213.546 120.926 215.77 120.926C217.994 120.926 219.799 122.73 219.799 124.954C219.799 127.179 217.994 128.983 215.77 128.983C213.546 128.983 211.742 127.179 211.742 124.954Z" fill="url(#paint9_linear)"/>
<path d="M216.438 33.6603H215.103V122.631H216.438V33.6603Z" fill="url(#paint10_linear)"/>
<path d="M100.553 121C100.553 118.776 102.357 116.972 104.581 116.972C106.806 116.972 108.61 118.776 108.61 121C108.61 123.224 106.806 125.029 104.581 125.029C102.357 125.029 100.553 123.224 100.553 121Z" fill="url(#paint11_linear)"/>
<path d="M105.273 74.1916H103.939V118.677H105.273V74.1916Z" fill="url(#paint12_linear)"/>
<path d="M252.495 344.663C252.495 342.439 254.3 340.635 256.524 340.635C258.748 340.635 260.552 342.439 260.552 344.663C260.552 346.888 258.748 348.692 256.524 348.692C254.324 348.692 252.495 346.888 252.495 344.663Z" fill="url(#paint13_linear)"/>
<path d="M257.216 297.83H255.881V342.315H257.216V297.83Z" fill="url(#paint14_linear)"/>
<path d="M20.7261 108.94C20.7261 106.715 22.5302 104.911 24.7545 104.911C26.9787 104.911 28.7829 106.715 28.7829 108.94C28.7829 111.164 26.9787 112.968 24.7545 112.968C22.5302 112.968 20.7261 111.164 20.7261 108.94Z" fill="url(#paint15_linear)"/>
<path d="M25.4465 62.1064H24.1119V106.592H25.4465V62.1064Z" fill="url(#paint16_linear)"/>
<path d="M150.97 47.3026C150.97 45.0783 152.774 43.2742 154.998 43.2742C157.222 43.2742 159.027 45.0783 159.027 47.3026C159.027 49.5269 157.222 51.331 154.998 51.331C152.799 51.3557 150.97 49.5269 150.97 47.3026Z" fill="url(#paint17_linear)"/>
<path d="M155.69 0.493988H154.356V44.9795H155.69V0.493988Z" fill="url(#paint18_linear)"/>
<path d="M94.918 372.862C94.918 370.638 96.7222 368.834 98.9464 368.834C101.171 368.834 102.975 370.638 102.975 372.862C102.975 375.086 101.171 376.89 98.9464 376.89C96.7222 376.89 94.918 375.086 94.918 372.862Z" fill="url(#paint19_linear)"/>
<path d="M99.6137 281.543H98.2791V370.539H99.6137V281.543Z" fill="url(#paint20_linear)"/>
<path d="M210.852 325.633C210.852 323.409 212.656 321.605 214.88 321.605C217.105 321.605 218.909 323.409 218.909 325.633C218.909 327.858 217.105 329.662 214.88 329.662C212.656 329.686 210.852 327.882 210.852 325.633Z" fill="url(#paint21_linear)"/>
<path d="M215.548 234.339H214.213V323.335H215.548V234.339Z" fill="url(#paint22_linear)"/>
<path d="M16.6977 549.815C16.6977 547.591 18.5018 545.787 20.7261 545.787C22.9504 545.787 24.7545 547.591 24.7545 549.815C24.7545 552.04 22.9504 553.844 20.7261 553.844C18.5018 553.869 16.6977 552.04 16.6977 549.815Z" fill="url(#paint23_linear)"/>
<path d="M21.3934 240.468H20.0588V547.492H21.3934V240.468Z" fill="url(#paint24_linear)"/>
<path d="M187.522 374.024C187.522 371.8 189.326 369.995 191.55 369.995C193.775 369.995 195.579 371.8 195.579 374.024C195.579 376.248 193.775 378.052 191.55 378.052C189.326 378.052 187.522 376.248 187.522 374.024Z" fill="url(#paint25_linear)"/>
<path d="M192.218 64.6766H190.883V371.701H192.218V64.6766Z" fill="url(#paint26_linear)"/>
<path d="M79.0021 464.008C79.0021 461.784 80.8062 459.98 83.0305 459.98C85.2547 459.98 87.0589 461.784 87.0589 464.008C87.0589 466.232 85.2547 468.036 83.0305 468.036C80.8062 468.061 79.0021 466.232 79.0021 464.008Z" fill="url(#paint27_linear)"/>
<path d="M83.7225 154.686H82.3879V461.71H83.7225V154.686Z" fill="url(#paint28_linear)"/>
<path d="M164.291 225.862C164.291 223.638 166.095 221.834 168.319 221.834C170.543 221.834 172.347 223.638 172.347 225.862C172.347 228.087 170.543 229.891 168.319 229.891C166.095 229.916 164.291 228.111 164.291 225.862Z" fill="url(#paint29_linear)"/>
<path d="M169.011 53.6788H167.676V223.539H169.011V53.6788Z" fill="url(#paint30_linear)"/>
<path d="M1307.77 380.722C1307.77 378.497 1309.58 376.693 1311.8 376.693C1314.03 376.693 1315.83 378.497 1315.83 380.722C1315.83 382.946 1314.03 384.75 1311.8 384.75C1309.58 384.775 1307.77 382.946 1307.77 380.722Z" fill="url(#paint31_linear)"/>
<path d="M1312.47 316.366H1311.14V378.423H1312.47V316.366Z" fill="url(#paint32_linear)"/>
<path d="M1203.85 290.614C1203.85 288.389 1205.66 286.585 1207.88 286.585C1210.1 286.585 1211.91 288.389 1211.91 290.614C1211.91 292.838 1210.1 294.642 1207.88 294.642C1205.66 294.642 1203.85 292.838 1203.85 290.614Z" fill="url(#paint33_linear)"/>
<path d="M1208.55 127.673H1207.21V288.291H1208.55V127.673Z" fill="url(#paint34_linear)"/>
<path d="M1157.91 151.745C1157.91 149.521 1159.71 147.717 1161.94 147.717C1164.16 147.717 1165.96 149.521 1165.96 151.745C1165.96 153.969 1164.16 155.773 1161.94 155.773C1159.74 155.798 1157.91 153.994 1157.91 151.745Z" fill="url(#paint35_linear)"/>
<path d="M1162.63 60.4508H1161.29V149.446H1162.63V60.4508Z" fill="url(#paint36_linear)"/>
<path d="M1282.64 221.884C1282.64 219.659 1284.44 217.855 1286.67 217.855C1288.89 217.855 1290.7 219.659 1290.7 221.884C1290.7 224.108 1288.89 225.912 1286.67 225.912C1284.44 225.937 1282.64 224.108 1282.64 221.884Z" fill="url(#paint37_linear)"/>
<path d="M1287.34 130.59H1286V219.585H1287.34V130.59Z" fill="url(#paint38_linear)"/>
<path d="M1410.17 228.903C1410.17 226.678 1411.97 224.874 1414.19 224.874C1416.42 224.874 1418.22 226.678 1418.22 228.903C1418.22 231.127 1416.42 232.931 1414.19 232.931C1411.97 232.931 1410.17 231.127 1410.17 228.903Z" fill="url(#paint39_linear)"/>
<path d="M1414.89 137.608H1413.55V226.604H1414.89V137.608Z" fill="url(#paint40_linear)"/>
<path d="M1270.8 296.273C1270.8 294.049 1272.61 292.245 1274.83 292.245C1277.06 292.245 1278.86 294.049 1278.86 296.273C1278.86 298.498 1277.06 300.302 1274.83 300.302C1272.61 300.326 1270.8 298.498 1270.8 296.273Z" fill="url(#paint41_linear)"/>
<path d="M1275.52 127.055H1274.19V293.95H1275.52V127.055Z" fill="url(#paint42_linear)"/>
<path d="M1294.26 265.677C1294.26 263.453 1296.06 261.649 1298.28 261.649C1300.51 261.649 1302.31 263.453 1302.31 265.677C1302.31 267.901 1300.51 269.706 1298.28 269.706C1296.06 269.706 1294.26 267.901 1294.26 265.677Z" fill="url(#paint43_linear)"/>
<path d="M1298.98 130.12H1297.64V263.354H1298.98V130.12Z" fill="url(#paint44_linear)"/>
<path d="M1236.77 442.655C1236.77 440.431 1238.58 438.627 1240.8 438.627C1243.02 438.627 1244.83 440.431 1244.83 442.655C1244.83 444.879 1243.02 446.684 1240.8 446.684C1238.6 446.684 1236.77 444.879 1236.77 442.655Z" fill="url(#paint45_linear)"/>
<path d="M1241.49 133.308H1240.16V440.332H1241.49V133.308Z" fill="url(#paint46_linear)"/>
<path d="M1354.29 309.347C1354.29 307.123 1356.09 305.319 1358.32 305.319C1360.54 305.319 1362.34 307.123 1362.34 309.347C1362.34 311.571 1360.54 313.375 1358.32 313.375C1356.09 313.375 1354.29 311.571 1354.29 309.347Z" fill="url(#paint47_linear)"/>
<path d="M1359.01 0H1357.67V307.024H1359.01V0Z" fill="url(#paint48_linear)"/>
<path d="M1415.45 326.523C1415.45 324.299 1417.26 322.495 1419.48 322.495C1421.71 322.495 1423.51 324.299 1423.51 326.523C1423.51 328.748 1421.71 330.552 1419.48 330.552C1417.26 330.552 1415.45 328.748 1415.45 326.523Z" fill="url(#paint49_linear)"/>
<path d="M1420.15 17.1764H1418.82V324.2H1420.15V17.1764Z" fill="url(#paint50_linear)"/>
<path d="M1168.61 510.248C1168.61 508.024 1170.41 506.22 1172.64 506.22C1174.86 506.22 1176.67 508.024 1176.67 510.248C1176.67 512.473 1174.86 514.277 1172.64 514.277C1170.44 514.277 1168.61 512.473 1168.61 510.248Z" fill="url(#paint51_linear)"/>
<path d="M1173.33 200.901H1172V507.925H1173.33V200.901Z" fill="url(#paint52_linear)"/>
<path d="M1426.43 388.63C1426.43 386.406 1428.23 384.602 1430.46 384.602C1432.68 384.602 1434.48 386.406 1434.48 388.63C1434.48 390.854 1432.68 392.659 1430.46 392.659C1428.23 392.659 1426.43 390.854 1426.43 388.63Z" fill="url(#paint53_linear)"/>
<path d="M1431.15 79.2831H1429.81V386.307H1431.15V79.2831Z" fill="url(#paint54_linear)"/>
<path d="M1115.89 428.197C1115.89 425.973 1117.7 424.169 1119.92 424.169C1122.15 424.169 1123.95 425.973 1123.95 428.197C1123.95 430.422 1122.15 432.226 1119.92 432.226C1117.7 432.251 1115.89 430.446 1115.89 428.197Z" fill="url(#paint55_linear)"/>
<path d="M1120.59 256.014H1119.26V425.874H1120.59V256.014Z" fill="url(#paint56_linear)"/>
<path d="M1185.34 243.089C1185.34 240.864 1187.14 239.06 1189.37 239.06C1191.59 239.06 1193.4 240.864 1193.4 243.089C1193.4 245.313 1191.59 247.117 1189.37 247.117C1187.14 247.142 1185.34 245.338 1185.34 243.089Z" fill="url(#paint57_linear)"/>
<path d="M1190.06 117.763H1188.73V240.79H1190.06V117.763Z" fill="url(#paint58_linear)"/>
<path d="M1404.98 460.202C1404.98 457.978 1406.78 456.174 1409 456.174C1411.23 456.174 1413.03 457.978 1413.03 460.202C1413.03 462.427 1411.23 464.231 1409 464.231C1406.78 464.231 1404.98 462.427 1404.98 460.202Z" fill="url(#paint59_linear)"/>
<path d="M1409.7 287.994H1408.36V457.855H1409.7V287.994Z" fill="url(#paint60_linear)"/>
<defs>
<linearGradient id="paint0_linear" x1="180.224" y1="315.457" x2="180.224" y2="245.437" gradientUnits="userSpaceOnUse">
<stop stop-color="#A4FFFF"/>
<stop offset="1" stop-color="#A4FFFF" stop-opacity="0"/>
</linearGradient>
<linearGradient id="paint1_linear" x1="180.227" y1="315.456" x2="180.227" y2="245.438" gradientUnits="userSpaceOnUse">
<stop stop-color="#A4FFFF"/>
<stop offset="1" stop-color="#A4FFFF" stop-opacity="0"/>
</linearGradient>
<linearGradient id="paint2_linear" x1="-2.53013" y1="205.897" x2="-2.53013" y2="135.856" gradientUnits="userSpaceOnUse">
<stop stop-color="#A4FFFF"/>
<stop offset="1" stop-color="#A4FFFF" stop-opacity="0"/>
</linearGradient>
<linearGradient id="paint3_linear" x1="47.557" y1="111.226" x2="47.557" y2="41.2065" gradientUnits="userSpaceOnUse">
<stop stop-color="#A4FFFF"/>
<stop offset="1" stop-color="#A4FFFF" stop-opacity="0"/>
</linearGradient>
<linearGradient id="paint4_linear" x1="47.5568" y1="111.225" x2="47.5568" y2="41.2073" gradientUnits="userSpaceOnUse">
<stop stop-color="#A4FFFF"/>
<stop offset="1" stop-color="#A4FFFF" stop-opacity="0"/>
</linearGradient>
<linearGradient id="paint5_linear" x1="87.7946" y1="131.676" x2="87.7946" y2="61.6535" gradientUnits="userSpaceOnUse">
<stop stop-color="#A4FFFF"/>
<stop offset="1" stop-color="#A4FFFF" stop-opacity="0"/>
</linearGradient>
<linearGradient id="paint6_linear" x1="87.7946" y1="131.676" x2="87.7946" y2="61.6568" gradientUnits="userSpaceOnUse">
<stop stop-color="#A4FFFF"/>
<stop offset="1" stop-color="#A4FFFF" stop-opacity="0"/>
</linearGradient>
<linearGradient id="paint7_linear" x1="153.431" y1="361.411" x2="153.431" y2="291.41" gradientUnits="userSpaceOnUse">
<stop stop-color="#A4FFFF"/>
<stop offset="1" stop-color="#A4FFFF" stop-opacity="0"/>
</linearGradient>
<linearGradient id="paint8_linear" x1="153.432" y1="361.404" x2="153.432" y2="291.386" gradientUnits="userSpaceOnUse">
<stop stop-color="#A4FFFF"/>
<stop offset="1" stop-color="#A4FFFF" stop-opacity="0"/>
</linearGradient>
<linearGradient id="paint9_linear" x1="215.771" y1="102.282" x2="215.771" y2="32.2625" gradientUnits="userSpaceOnUse">
<stop stop-color="#A4FFFF"/>
<stop offset="1" stop-color="#A4FFFF" stop-opacity="0"/>
</linearGradient>
<linearGradient id="paint10_linear" x1="215.77" y1="102.281" x2="215.77" y2="32.263" gradientUnits="userSpaceOnUse">
<stop stop-color="#A4FFFF"/>
<stop offset="1" stop-color="#A4FFFF" stop-opacity="0"/>
</linearGradient>
<linearGradient id="paint11_linear" x1="104.593" y1="98.3314" x2="104.593" y2="28.3118" gradientUnits="userSpaceOnUse">
<stop stop-color="#A4FFFF"/>
<stop offset="1" stop-color="#A4FFFF" stop-opacity="0"/>
</linearGradient>
<linearGradient id="paint12_linear" x1="104.594" y1="108.507" x2="104.594" y2="73.4979" gradientUnits="userSpaceOnUse">
<stop stop-color="#A4FFFF"/>
<stop offset="1" stop-color="#A4FFFF" stop-opacity="0"/>
</linearGradient>
<linearGradient id="paint13_linear" x1="256.542" y1="321.981" x2="256.542" y2="251.961" gradientUnits="userSpaceOnUse">
<stop stop-color="#A4FFFF"/>
<stop offset="1" stop-color="#A4FFFF" stop-opacity="0"/>
</linearGradient>
<linearGradient id="paint14_linear" x1="256.542" y1="332.157" x2="256.542" y2="297.148" gradientUnits="userSpaceOnUse">
<stop stop-color="#A4FFFF"/>
<stop offset="1" stop-color="#A4FFFF" stop-opacity="0"/>
</linearGradient>
<linearGradient id="paint15_linear" x1="24.771" y1="86.2509" x2="24.771" y2="16.2097" gradientUnits="userSpaceOnUse">
<stop stop-color="#A4FFFF"/>
<stop offset="1" stop-color="#A4FFFF" stop-opacity="0"/>
</linearGradient>
<linearGradient id="paint16_linear" x1="24.7711" y1="96.4351" x2="24.7711" y2="61.4255" gradientUnits="userSpaceOnUse">
<stop stop-color="#A4FFFF"/>
<stop offset="1" stop-color="#A4FFFF" stop-opacity="0"/>
</linearGradient>
<linearGradient id="paint17_linear" x1="155.018" y1="24.6352" x2="155.018" y2="-45.3847" gradientUnits="userSpaceOnUse">
<stop stop-color="#A4FFFF"/>
<stop offset="1" stop-color="#A4FFFF" stop-opacity="0"/>
</linearGradient>
<linearGradient id="paint18_linear" x1="155.02" y1="34.8103" x2="155.02" y2="-0.195785" gradientUnits="userSpaceOnUse">
<stop stop-color="#A4FFFF"/>
<stop offset="1" stop-color="#A4FFFF" stop-opacity="0"/>
</linearGradient>
<linearGradient id="paint19_linear" x1="98.9571" y1="350.188" x2="98.9571" y2="280.168" gradientUnits="userSpaceOnUse">
<stop stop-color="#A4FFFF"/>
<stop offset="1" stop-color="#A4FFFF" stop-opacity="0"/>
</linearGradient>
<linearGradient id="paint20_linear" x1="98.9558" y1="350.188" x2="98.9558" y2="280.168" gradientUnits="userSpaceOnUse">
<stop stop-color="#A4FFFF"/>
<stop offset="1" stop-color="#A4FFFF" stop-opacity="0"/>
</linearGradient>
<linearGradient id="paint21_linear" x1="214.887" y1="302.964" x2="214.887" y2="232.923" gradientUnits="userSpaceOnUse">
<stop stop-color="#A4FFFF"/>
<stop offset="1" stop-color="#A4FFFF" stop-opacity="0"/>
</linearGradient>
<linearGradient id="paint22_linear" x1="214.888" y1="302.97" x2="214.888" y2="232.952" gradientUnits="userSpaceOnUse">
<stop stop-color="#A4FFFF"/>
<stop offset="1" stop-color="#A4FFFF" stop-opacity="0"/>
</linearGradient>
<linearGradient id="paint23_linear" x1="20.7345" y1="510.33" x2="20.7345" y2="385.631" gradientUnits="userSpaceOnUse">
<stop stop-color="#A4FFFF"/>
<stop offset="1" stop-color="#A4FFFF" stop-opacity="0"/>
</linearGradient>
<linearGradient id="paint24_linear" x1="20.7358" y1="479.128" x2="20.7358" y2="249.739" gradientUnits="userSpaceOnUse">
<stop stop-color="#A4FFFF"/>
<stop offset="1" stop-color="#A4FFFF" stop-opacity="0"/>
</linearGradient>
<linearGradient id="paint25_linear" x1="191.548" y1="334.534" x2="191.548" y2="209.835" gradientUnits="userSpaceOnUse">
<stop stop-color="#A4FFFF"/>
<stop offset="1" stop-color="#A4FFFF" stop-opacity="0"/>
</linearGradient>
<linearGradient id="paint26_linear" x1="191.55" y1="303.331" x2="191.55" y2="73.9432" gradientUnits="userSpaceOnUse">
<stop stop-color="#A4FFFF"/>
<stop offset="1" stop-color="#A4FFFF" stop-opacity="0"/>
</linearGradient>
<linearGradient id="paint27_linear" x1="83.0448" y1="424.523" x2="83.0448" y2="299.825" gradientUnits="userSpaceOnUse">
<stop stop-color="#A4FFFF"/>
<stop offset="1" stop-color="#A4FFFF" stop-opacity="0"/>
</linearGradient>
<linearGradient id="paint28_linear" x1="83.0461" y1="393.319" x2="83.0461" y2="163.932" gradientUnits="userSpaceOnUse">
<stop stop-color="#A4FFFF"/>
<stop offset="1" stop-color="#A4FFFF" stop-opacity="0"/>
</linearGradient>
<linearGradient id="paint29_linear" x1="168.33" y1="186.369" x2="168.33" y2="61.632" gradientUnits="userSpaceOnUse">
<stop stop-color="#A4FFFF"/>
<stop offset="1" stop-color="#A4FFFF" stop-opacity="0"/>
</linearGradient>
<linearGradient id="paint30_linear" x1="168.33" y1="185.724" x2="168.33" y2="58.8085" gradientUnits="userSpaceOnUse">
<stop stop-color="#A4FFFF"/>
<stop offset="1" stop-color="#A4FFFF" stop-opacity="0"/>
</linearGradient>
<linearGradient id="paint31_linear" x1="1311.8" y1="358.066" x2="1311.8" y2="288.068" gradientUnits="userSpaceOnUse">
<stop stop-color="#A4FFFF"/>
<stop offset="1" stop-color="#A4FFFF" stop-opacity="0"/>
</linearGradient>
<linearGradient id="paint32_linear" x1="1311.8" y1="364.217" x2="1311.8" y2="315.388" gradientUnits="userSpaceOnUse">
<stop stop-color="#A4FFFF"/>
<stop offset="1" stop-color="#A4FFFF" stop-opacity="0"/>
</linearGradient>
<linearGradient id="paint33_linear" x1="1207.88" y1="267.943" x2="1207.88" y2="197.923" gradientUnits="userSpaceOnUse">
<stop stop-color="#A4FFFF"/>
<stop offset="1" stop-color="#A4FFFF" stop-opacity="0"/>
</linearGradient>
<linearGradient id="paint34_linear" x1="1207.88" y1="251.561" x2="1207.88" y2="125.179" gradientUnits="userSpaceOnUse">
<stop stop-color="#A4FFFF"/>
<stop offset="1" stop-color="#A4FFFF" stop-opacity="0"/>
</linearGradient>
<linearGradient id="paint35_linear" x1="1161.96" y1="129.083" x2="1161.96" y2="59.063" gradientUnits="userSpaceOnUse">
<stop stop-color="#A4FFFF"/>
<stop offset="1" stop-color="#A4FFFF" stop-opacity="0"/>
</linearGradient>
<linearGradient id="paint36_linear" x1="1161.96" y1="129.083" x2="1161.96" y2="59.0636" gradientUnits="userSpaceOnUse">
<stop stop-color="#A4FFFF"/>
<stop offset="1" stop-color="#A4FFFF" stop-opacity="0"/>
</linearGradient>
<linearGradient id="paint37_linear" x1="1286.67" y1="199.207" x2="1286.67" y2="129.166" gradientUnits="userSpaceOnUse">
<stop stop-color="#A4FFFF"/>
<stop offset="1" stop-color="#A4FFFF" stop-opacity="0"/>
</linearGradient>
<linearGradient id="paint38_linear" x1="1286.67" y1="199.213" x2="1286.67" y2="129.194" gradientUnits="userSpaceOnUse">
<stop stop-color="#A4FFFF"/>
<stop offset="1" stop-color="#A4FFFF" stop-opacity="0"/>
</linearGradient>
<linearGradient id="paint39_linear" x1="1414.21" y1="206.234" x2="1414.21" y2="136.214" gradientUnits="userSpaceOnUse">
<stop stop-color="#A4FFFF"/>
<stop offset="1" stop-color="#A4FFFF" stop-opacity="0"/>
</linearGradient>
<linearGradient id="paint40_linear" x1="1414.21" y1="206.234" x2="1414.21" y2="136.215" gradientUnits="userSpaceOnUse">
<stop stop-color="#A4FFFF"/>
<stop offset="1" stop-color="#A4FFFF" stop-opacity="0"/>
</linearGradient>
<linearGradient id="paint41_linear" x1="1274.85" y1="256.788" x2="1274.85" y2="132.089" gradientUnits="userSpaceOnUse">
<stop stop-color="#A4FFFF"/>
<stop offset="1" stop-color="#A4FFFF" stop-opacity="0"/>
</linearGradient>
<linearGradient id="paint42_linear" x1="1274.85" y1="256.79" x2="1274.85" y2="132.092" gradientUnits="userSpaceOnUse">
<stop stop-color="#A4FFFF"/>
<stop offset="1" stop-color="#A4FFFF" stop-opacity="0"/>
</linearGradient>
<linearGradient id="paint43_linear" x1="1298.3" y1="226.18" x2="1298.3" y2="101.481" gradientUnits="userSpaceOnUse">
<stop stop-color="#A4FFFF"/>
<stop offset="1" stop-color="#A4FFFF" stop-opacity="0"/>
</linearGradient>
<linearGradient id="paint44_linear" x1="1298.3" y1="233.675" x2="1298.3" y2="134.127" gradientUnits="userSpaceOnUse">
<stop stop-color="#A4FFFF"/>
<stop offset="1" stop-color="#A4FFFF" stop-opacity="0"/>
</linearGradient>
<linearGradient id="paint45_linear" x1="1240.82" y1="403.166" x2="1240.82" y2="278.467" gradientUnits="userSpaceOnUse">
<stop stop-color="#A4FFFF"/>
<stop offset="1" stop-color="#A4FFFF" stop-opacity="0"/>
</linearGradient>
<linearGradient id="paint46_linear" x1="1240.82" y1="371.961" x2="1240.82" y2="142.573" gradientUnits="userSpaceOnUse">
<stop stop-color="#A4FFFF"/>
<stop offset="1" stop-color="#A4FFFF" stop-opacity="0"/>
</linearGradient>
<linearGradient id="paint47_linear" x1="1358.33" y1="269.841" x2="1358.33" y2="145.104" gradientUnits="userSpaceOnUse">
<stop stop-color="#A4FFFF"/>
<stop offset="1" stop-color="#A4FFFF" stop-opacity="0"/>
</linearGradient>
<linearGradient id="paint48_linear" x1="1358.33" y1="238.647" x2="1358.33" y2="9.25916" gradientUnits="userSpaceOnUse">
<stop stop-color="#A4FFFF"/>
<stop offset="1" stop-color="#A4FFFF" stop-opacity="0"/>
</linearGradient>
<linearGradient id="paint49_linear" x1="1419.49" y1="287.022" x2="1419.49" y2="162.288" gradientUnits="userSpaceOnUse">
<stop stop-color="#A4FFFF"/>
<stop offset="1" stop-color="#A4FFFF" stop-opacity="0"/>
</linearGradient>
<linearGradient id="paint50_linear" x1="1419.49" y1="255.831" x2="1419.49" y2="26.441" gradientUnits="userSpaceOnUse">
<stop stop-color="#A4FFFF"/>
<stop offset="1" stop-color="#A4FFFF" stop-opacity="0"/>
</linearGradient>
<linearGradient id="paint51_linear" x1="1172.66" y1="470.758" x2="1172.66" y2="346.06" gradientUnits="userSpaceOnUse">
<stop stop-color="#A4FFFF"/>
<stop offset="1" stop-color="#A4FFFF" stop-opacity="0"/>
</linearGradient>
<linearGradient id="paint52_linear" x1="1172.66" y1="439.554" x2="1172.66" y2="210.168" gradientUnits="userSpaceOnUse">
<stop stop-color="#A4FFFF"/>
<stop offset="1" stop-color="#A4FFFF" stop-opacity="0"/>
</linearGradient>
<linearGradient id="paint53_linear" x1="1430.47" y1="349.146" x2="1430.47" y2="224.485" gradientUnits="userSpaceOnUse">
<stop stop-color="#A4FFFF"/>
<stop offset="1" stop-color="#A4FFFF" stop-opacity="0"/>
</linearGradient>
<linearGradient id="paint54_linear" x1="1430.47" y1="317.93" x2="1430.47" y2="88.5425" gradientUnits="userSpaceOnUse">
<stop stop-color="#A4FFFF"/>
<stop offset="1" stop-color="#A4FFFF" stop-opacity="0"/>
</linearGradient>
<linearGradient id="paint55_linear" x1="1119.93" y1="388.719" x2="1119.93" y2="264.02" gradientUnits="userSpaceOnUse">
<stop stop-color="#A4FFFF"/>
<stop offset="1" stop-color="#A4FFFF" stop-opacity="0"/>
</linearGradient>
<linearGradient id="paint56_linear" x1="1119.93" y1="388.058" x2="1119.93" y2="261.146" gradientUnits="userSpaceOnUse">
<stop stop-color="#A4FFFF"/>
<stop offset="1" stop-color="#A4FFFF" stop-opacity="0"/>
</linearGradient>
<linearGradient id="paint57_linear" x1="1189.39" y1="203.61" x2="1189.39" y2="78.9117" gradientUnits="userSpaceOnUse">
<stop stop-color="#A4FFFF"/>
<stop offset="1" stop-color="#A4FFFF" stop-opacity="0"/>
</linearGradient>
<linearGradient id="paint58_linear" x1="1189.39" y1="213.385" x2="1189.39" y2="121.474" gradientUnits="userSpaceOnUse">
<stop stop-color="#A4FFFF"/>
<stop offset="1" stop-color="#A4FFFF" stop-opacity="0"/>
</linearGradient>
<linearGradient id="paint59_linear" x1="1409.02" y1="420.716" x2="1409.02" y2="296.055" gradientUnits="userSpaceOnUse">
<stop stop-color="#A4FFFF"/>
<stop offset="1" stop-color="#A4FFFF" stop-opacity="0"/>
</linearGradient>
<linearGradient id="paint60_linear" x1="1409.02" y1="420.044" x2="1409.02" y2="293.129" gradientUnits="userSpaceOnUse">
<stop stop-color="#A4FFFF"/>
<stop offset="1" stop-color="#A4FFFF" stop-opacity="0"/>
</linearGradient>
</defs>
</svg>
