<?xml version="1.0" encoding="UTF-8"?>
<svg viewBox="0 0 64 64" xmlns="http://www.w3.org/2000/svg">
 <defs>
  <linearGradient id="c" x1="32.068" x2="32.19" y1="23.939" y2="56.061" gradientUnits="userSpaceOnUse">
   <stop stop-color="#ced1f2" offset="0"/>
   <stop stop-color="#1d42c9" stop-opacity="0" offset="1"/>
  </linearGradient>
  <linearGradient id="b" x1="20.04" x2="43.964" y1="11.644" y2="51.881" gradientUnits="userSpaceOnUse">
   <stop stop-color="#3c44dc" offset="0"/>
   <stop stop-color="#0d1f6a" offset="1"/>
  </linearGradient>
  <radialGradient id="a" cx="-18.3" cy=".4053" r="17.1" gradientTransform="matrix(-.1316 1.117 -1.0576 -.12462 33.357 39.585)" gradientUnits="userSpaceOnUse">
   <stop stop-color="#d2d0f3" offset="0"/>
   <stop stop-color="#1c3db8" offset="1"/>
  </radialGradient>
 </defs>
 <path d="m22,14c-1,0-1,1-1,1v17c-1,.0488-5,0-5,0-.44725.00913-.84641.10907-1.01605.523s-.0774.88906.2348,1.20945l16,16c.43543.4218 1.12707.4218 1.5625,0l16-16c.3122-.32038.40444-.79552.2348-1.20945s-.5688-.51387-1.01605-.523h-5v-17.0488c0,0 0-1-1-1-6,0-14,.0488-20,.0488z" fill="url(#b)"/>
 <path d="m41.781 15.156c-5.903 0.00132-13.643 0.06118-19.562 0.0625v16.781c0.00101 0.64949-0.50761 1.1856-1.1562 1.2188-1.094 0.05339-4.0576 0.00784-4.625 0l15.562 15.562 15.531-15.562h-4.5312c-0.67317 1.7e-4 -1.2189-0.54558-1.2188-1.2188v-16.844z" fill="url(#a)"/>
 <path d="m23.219 22.031c0 4.1173 0.03699 9.2057 0 9.75-0.21875 3.2188-4.2188 1.2188-3.2188 3.2188s12 12 12 12l10.938-11.062c-7.9375-2.9375-15.3-7.2136-19.719-13.906z" fill="url(#c)"/>
</svg>
