<!DOCTYPE svg PUBLIC "-//W3C//DTD SVG 20010904//EN" "http://www.w3.org/TR/2001/REC-SVG-20010904/DTD/svg10.dtd">
<svg version="1.0" xmlns="http://www.w3.org/2000/svg" width="512px" height="512px" viewBox="0 0 5120 5120" preserveAspectRatio="xMidYMid meet">
<g id="layer101" fill="#ffffff" stroke="none">
 <path d="M522 5093 c-52 -34 -82 -91 -82 -159 0 -95 311 -3519 322 -3548 16 -40 54 -83 92 -104 27 -15 73 -17 377 -20 l347 -3 5 -232 c5 -268 14 -313 97 -482 95 -195 250 -350 445 -445 165 -81 229 -95 435 -95 206 0 270 14 435 95 195 95 350 250 445 445 83 169 92 214 97 482 l5 232 347 3 c304 3 350 5 377 20 43 23 81 71 94 116 11 38 320 3454 320 3536 0 56 -14 93 -48 129 -58 61 99 57 -2075 57 l-1993 0 -42 -27z m3762 -385 c-5 -41 -274 -3046 -274 -3061 0 -4 -106 -7 -235 -7 l-235 0 0 184 c0 106 -5 197 -11 213 -25 67 -95 113 -173 113 -56 0 -93 -14 -130 -48 -51 -48 -56 -74 -56 -277 l0 -185 -610 0 -610 0 0 185 c0 203 -5 229 -56 277 -37 34 -74 48 -129 48 -55 0 -92 -14 -129 -48 -51 -48 -56 -74 -56 -277 l0 -185 -235 0 c-129 0 -235 1 -235 3 0 13 -270 3023 -275 3060 l-6 47 1730 0 1731 0 -6 -42z m-1117 -3640 c-3 -142 -9 -208 -22 -248 -64 -206 -224 -365 -430 -426 -81 -24 -229 -24 -310 0 -206 61 -366 220 -430 426 -13 40 -19 106 -22 248 l-6 192 613 0 613 0 -6 -192z"/>
 </g>

</svg>