<!DOCTYPE svg PUBLIC "-//W3C//DTD SVG 20010904//EN" "http://www.w3.org/TR/2001/REC-SVG-20010904/DTD/svg10.dtd">
<svg version="1.0" xmlns="http://www.w3.org/2000/svg" width="150px" height="150px" viewBox="0 0 1500 1500" preserveAspectRatio="xMidYMid meet">
<g id="layer101" fill="#0083ff" stroke="none">
 <path d="M356 1478 c-9 -12 -16 -31 -16 -42 0 -13 118 -139 332 -353 l333 -333 -333 -333 c-214 -214 -332 -340 -332 -353 0 -35 28 -64 63 -64 29 0 69 36 395 363 278 278 362 368 362 387 0 19 -84 109 -362 387 -326 327 -366 363 -395 363 -22 0 -37 -7 -47 -22z"/>
 </g>

</svg>