<svg width="130" height="65" viewBox="0 0 130 65" fill="none" xmlns="http://www.w3.org/2000/svg">
<g clip-path="url(#clip0)">
<g filter="url(#filter0_d)">
<rect width="130" height="65" rx="10" fill="#516EA9"/>
</g>
<path opacity="0.8" d="M31.9678 47H30.8203V41.5996H31.9678V47ZM30.752 40.1689C30.752 39.9639 30.8073 39.806 30.918 39.6953C31.0319 39.5846 31.193 39.5293 31.4014 39.5293C31.6032 39.5293 31.7594 39.5846 31.8701 39.6953C31.984 39.806 32.041 39.9639 32.041 40.1689C32.041 40.3643 31.984 40.5189 31.8701 40.6328C31.7594 40.7435 31.6032 40.7988 31.4014 40.7988C31.193 40.7988 31.0319 40.7435 30.918 40.6328C30.8073 40.5189 30.752 40.3643 30.752 40.1689ZM38.8643 47H37.7119V43.6797C37.7119 43.263 37.6273 42.9521 37.458 42.7471C37.292 42.542 37.0267 42.4395 36.6621 42.4395C36.1771 42.4395 35.8223 42.5827 35.5977 42.8691C35.373 43.1556 35.2607 43.6357 35.2607 44.3096V47H34.1133V41.5996H35.0117L35.1729 42.3076H35.2314C35.3942 42.0505 35.6253 41.8519 35.9248 41.7119C36.2243 41.5719 36.5563 41.502 36.9209 41.502C38.2165 41.502 38.8643 42.1611 38.8643 43.4795V47ZM43.1387 47.0977C42.3216 47.0977 41.6999 46.86 41.2734 46.3848C40.8503 45.9062 40.6387 45.221 40.6387 44.3291C40.6387 43.4209 40.86 42.7227 41.3027 42.2344C41.7487 41.7461 42.3916 41.502 43.2314 41.502C43.8011 41.502 44.3138 41.6077 44.7695 41.8193L44.4229 42.7422C43.9378 42.5534 43.5374 42.459 43.2217 42.459C42.2874 42.459 41.8203 43.0791 41.8203 44.3193C41.8203 44.9248 41.9359 45.3805 42.167 45.6865C42.4014 45.9893 42.7432 46.1406 43.1924 46.1406C43.7035 46.1406 44.1868 46.0137 44.6426 45.7598V46.7607C44.4375 46.8812 44.2178 46.9674 43.9834 47.0195C43.7523 47.0716 43.4707 47.0977 43.1387 47.0977ZM49.1514 41.502C49.3825 41.502 49.5729 41.5182 49.7227 41.5508L49.6104 42.6201C49.4476 42.5811 49.2783 42.5615 49.1025 42.5615C48.6436 42.5615 48.2708 42.7113 47.9844 43.0107C47.7012 43.3102 47.5596 43.6992 47.5596 44.1777V47H46.4121V41.5996H47.3105L47.4619 42.5518H47.5205C47.6995 42.2295 47.9323 41.974 48.2188 41.7852C48.5085 41.5964 48.8193 41.502 49.1514 41.502ZM53.5869 47.0977C52.7471 47.0977 52.0895 46.8535 51.6143 46.3652C51.1423 45.8737 50.9062 45.1982 50.9062 44.3389C50.9062 43.4567 51.126 42.7633 51.5654 42.2588C52.0049 41.7542 52.6087 41.502 53.377 41.502C54.0898 41.502 54.653 41.7184 55.0664 42.1514C55.4798 42.5843 55.6865 43.18 55.6865 43.9385V44.5586H52.0879C52.1042 45.0827 52.2458 45.4863 52.5127 45.7695C52.7796 46.0495 53.1556 46.1895 53.6406 46.1895C53.9596 46.1895 54.2559 46.1602 54.5293 46.1016C54.806 46.0397 55.1022 45.9388 55.418 45.7988V46.7314C55.138 46.8649 54.8548 46.9593 54.5684 47.0146C54.2819 47.07 53.9548 47.0977 53.5869 47.0977ZM53.377 42.3711C53.0124 42.3711 52.7194 42.4867 52.498 42.7178C52.2799 42.9489 52.1497 43.2858 52.1074 43.7285H54.5586C54.5521 43.2826 54.4447 42.9456 54.2363 42.7178C54.028 42.4867 53.7415 42.3711 53.377 42.3711ZM60.8691 47L60.6396 46.248H60.6006C60.3402 46.5768 60.0781 46.8014 59.8145 46.9219C59.5508 47.0391 59.2122 47.0977 58.7988 47.0977C58.2682 47.0977 57.8532 46.9544 57.5537 46.668C57.2575 46.3815 57.1094 45.9762 57.1094 45.4521C57.1094 44.8955 57.3161 44.4756 57.7295 44.1924C58.1429 43.9092 58.7728 43.7546 59.6191 43.7285L60.5518 43.6992V43.4111C60.5518 43.0661 60.4704 42.8089 60.3076 42.6396C60.1481 42.4671 59.8991 42.3809 59.5605 42.3809C59.2839 42.3809 59.0186 42.4215 58.7646 42.5029C58.5107 42.5843 58.2666 42.6803 58.0322 42.791L57.6611 41.9707C57.9541 41.8177 58.2747 41.7021 58.623 41.624C58.9714 41.5426 59.3001 41.502 59.6094 41.502C60.2962 41.502 60.8138 41.6517 61.1621 41.9512C61.5137 42.2507 61.6895 42.721 61.6895 43.3623V47H60.8691ZM59.1602 46.2188C59.5768 46.2188 59.9105 46.1032 60.1611 45.8721C60.415 45.6377 60.542 45.3105 60.542 44.8906V44.4219L59.8486 44.4512C59.3083 44.4707 58.9144 44.5618 58.667 44.7246C58.4229 44.8841 58.3008 45.1299 58.3008 45.4619C58.3008 45.7028 58.3724 45.89 58.5156 46.0234C58.6589 46.1536 58.8737 46.2188 59.1602 46.2188ZM67.4189 45.4619C67.4189 45.9893 67.2269 46.3945 66.8428 46.6777C66.4587 46.9577 65.9085 47.0977 65.1924 47.0977C64.473 47.0977 63.8952 46.9886 63.459 46.7705V45.7793C64.0938 46.0723 64.6846 46.2188 65.2314 46.2188C65.9378 46.2188 66.291 46.0055 66.291 45.5791C66.291 45.4424 66.252 45.3285 66.1738 45.2373C66.0957 45.1462 65.9671 45.0518 65.7881 44.9541C65.609 44.8564 65.36 44.7458 65.041 44.6221C64.4193 44.3812 63.9977 44.1403 63.7764 43.8994C63.5583 43.6585 63.4492 43.346 63.4492 42.9619C63.4492 42.4997 63.6348 42.1416 64.0059 41.8877C64.3802 41.6305 64.888 41.502 65.5293 41.502C66.1641 41.502 66.7646 41.6305 67.3311 41.8877L66.96 42.752C66.3773 42.5111 65.8874 42.3906 65.4902 42.3906C64.8848 42.3906 64.582 42.5632 64.582 42.9082C64.582 43.0775 64.6602 43.2207 64.8164 43.3379C64.9759 43.4551 65.321 43.6162 65.8516 43.8213C66.2975 43.9938 66.6214 44.1517 66.8232 44.2949C67.0251 44.4382 67.1748 44.6042 67.2725 44.793C67.3701 44.9785 67.4189 45.2015 67.4189 45.4619ZM71.5225 47.0977C70.6826 47.0977 70.0251 46.8535 69.5498 46.3652C69.0778 45.8737 68.8418 45.1982 68.8418 44.3389C68.8418 43.4567 69.0615 42.7633 69.501 42.2588C69.9404 41.7542 70.5443 41.502 71.3125 41.502C72.0254 41.502 72.5885 41.7184 73.002 42.1514C73.4154 42.5843 73.6221 43.18 73.6221 43.9385V44.5586H70.0234C70.0397 45.0827 70.1813 45.4863 70.4482 45.7695C70.7152 46.0495 71.0911 46.1895 71.5762 46.1895C71.8952 46.1895 72.1914 46.1602 72.4648 46.1016C72.7415 46.0397 73.0378 45.9388 73.3535 45.7988V46.7314C73.0736 46.8649 72.7904 46.9593 72.5039 47.0146C72.2174 47.07 71.8903 47.0977 71.5225 47.0977ZM71.3125 42.3711C70.9479 42.3711 70.6549 42.4867 70.4336 42.7178C70.2155 42.9489 70.0853 43.2858 70.043 43.7285H72.4941C72.4876 43.2826 72.3802 42.9456 72.1719 42.7178C71.9635 42.4867 71.6771 42.3711 71.3125 42.3711ZM81.5117 47H80.3643V42.3906C80.3643 41.8405 80.3773 41.4043 80.4033 41.082C80.3285 41.1602 80.2357 41.2464 80.125 41.3408C80.0176 41.4352 79.653 41.7347 79.0312 42.2393L78.4551 41.5117L80.5547 39.8613H81.5117V47ZM89.1943 47H84.3555V46.1309L86.1963 44.2803C86.7399 43.7236 87.0996 43.3298 87.2754 43.0986C87.4544 42.8643 87.5846 42.6445 87.666 42.4395C87.7474 42.2344 87.7881 42.0146 87.7881 41.7803C87.7881 41.458 87.6904 41.2041 87.4951 41.0186C87.3031 40.833 87.0361 40.7402 86.6943 40.7402C86.4209 40.7402 86.1556 40.7907 85.8984 40.8916C85.6445 40.9925 85.3499 41.1748 85.0146 41.4385L84.3945 40.6816C84.7917 40.3464 85.1774 40.1087 85.5518 39.9688C85.9261 39.8288 86.3249 39.7588 86.748 39.7588C87.4121 39.7588 87.9443 39.9329 88.3447 40.2812C88.7451 40.6263 88.9453 41.0918 88.9453 41.6777C88.9453 42 88.8867 42.306 88.7695 42.5957C88.6556 42.8854 88.4782 43.1849 88.2373 43.4941C87.9997 43.8001 87.6025 44.2152 87.0459 44.7393L85.8057 45.9404V45.9893H89.1943V47ZM91.4912 42C91.4912 42.485 91.5384 42.8464 91.6328 43.084C91.7272 43.3216 91.8818 43.4404 92.0967 43.4404C92.5264 43.4404 92.7412 42.9603 92.7412 42C92.7412 41.0397 92.5264 40.5596 92.0967 40.5596C91.8818 40.5596 91.7272 40.6784 91.6328 40.916C91.5384 41.1536 91.4912 41.515 91.4912 42ZM93.6885 41.9902C93.6885 42.7389 93.5534 43.3021 93.2832 43.6797C93.0163 44.054 92.6208 44.2412 92.0967 44.2412C91.6019 44.2412 91.2178 44.0475 90.9443 43.6602C90.6742 43.2695 90.5391 42.7129 90.5391 41.9902C90.5391 40.5026 91.0583 39.7588 92.0967 39.7588C92.6077 39.7588 93 39.9525 93.2734 40.3398C93.5501 40.724 93.6885 41.2741 93.6885 41.9902ZM96.1396 44.8516C96.1396 45.3366 96.1868 45.6995 96.2812 45.9404C96.3789 46.1813 96.5352 46.3018 96.75 46.3018C97.1764 46.3018 97.3896 45.8184 97.3896 44.8516C97.3896 43.8978 97.1764 43.4209 96.75 43.4209C96.5352 43.4209 96.3789 43.5381 96.2812 43.7725C96.1868 44.0068 96.1396 44.3665 96.1396 44.8516ZM98.3369 44.8516C98.3369 45.6003 98.2018 46.1618 97.9316 46.5361C97.6615 46.9105 97.2676 47.0977 96.75 47.0977C96.2552 47.0977 95.8711 46.9056 95.5977 46.5215C95.3242 46.1341 95.1875 45.5775 95.1875 44.8516C95.1875 43.3639 95.7083 42.6201 96.75 42.6201C97.2513 42.6201 97.6403 42.8122 97.917 43.1963C98.1969 43.5804 98.3369 44.1322 98.3369 44.8516ZM96.8867 39.8613L92.9268 47H91.9795L95.9395 39.8613H96.8867Z" fill="white"/>
<path d="M38.24 22.168C37.9093 21.9333 37.5253 21.7573 37.088 21.64C36.6613 21.512 36.2293 21.448 35.792 21.448C34.7893 21.448 34.032 21.784 33.52 22.456C33.0187 23.128 32.784 24.0453 32.816 25.208C33.104 24.7173 33.4933 24.3493 33.984 24.104C34.4853 23.848 35.0773 23.72 35.76 23.72C36.8693 23.72 37.7493 24.0453 38.4 24.696C39.0507 25.3467 39.376 26.216 39.376 27.304C39.376 28.072 39.2107 28.744 38.88 29.32C38.5493 29.8853 38.08 30.3227 37.472 30.632C36.8747 30.9413 36.176 31.096 35.376 31.096C34.4267 31.096 33.6053 30.8773 32.912 30.44C32.2187 30.0027 31.6853 29.3733 31.312 28.552C30.9493 27.7307 30.768 26.7493 30.768 25.608C30.768 24.424 30.9653 23.3893 31.36 22.504C31.7653 21.608 32.336 20.92 33.072 20.44C33.808 19.9493 34.672 19.704 35.664 19.704C36.24 19.704 36.832 19.784 37.44 19.944C38.0587 20.0933 38.5973 20.3013 39.056 20.568L38.24 22.168ZM35.344 25.368C34.6613 25.368 34.1173 25.56 33.712 25.944C33.3067 26.328 33.1093 26.8027 33.12 27.368C33.1093 27.688 33.184 27.9973 33.344 28.296C33.504 28.584 33.744 28.824 34.064 29.016C34.3947 29.1973 34.8 29.288 35.28 29.288C35.92 29.288 36.432 29.112 36.816 28.76C37.2 28.408 37.392 27.9173 37.392 27.288C37.392 26.7013 37.2053 26.2373 36.832 25.896C36.4693 25.544 35.9733 25.368 35.344 25.368ZM56.5589 22.36C57.5295 22.36 58.2922 22.6587 58.8469 23.256C59.4015 23.8427 59.6789 24.6427 59.6789 25.656V31H57.5829V26.264C57.5829 25.656 57.4122 25.1813 57.0709 24.84C56.7402 24.488 56.2869 24.312 55.7109 24.312C55.0495 24.3333 54.5215 24.5733 54.1269 25.032C53.7429 25.4907 53.5509 26.072 53.5509 26.776V31H51.4549V26.264C51.4549 25.656 51.2895 25.1813 50.9589 24.84C50.6282 24.488 50.1749 24.312 49.5989 24.312C48.9269 24.3333 48.3935 24.5733 47.9989 25.032C47.6149 25.4907 47.4229 26.072 47.4229 26.776V31H45.3429V22.44H47.4229V24.024C47.9882 22.936 48.9909 22.3813 50.4309 22.36C51.1775 22.36 51.8015 22.5413 52.3029 22.904C52.8149 23.256 53.1722 23.7573 53.3749 24.408C53.9189 23.064 54.9802 22.3813 56.5589 22.36ZM65.7431 22.376C66.6285 22.376 67.4071 22.5573 68.0791 22.92C68.7618 23.2827 69.2898 23.7947 69.6631 24.456C70.0471 25.1067 70.2391 25.8587 70.2391 26.712C70.2391 27.576 70.0471 28.3387 69.6631 29C69.2898 29.6613 68.7618 30.1733 68.0791 30.536C67.4071 30.8987 66.6285 31.08 65.7431 31.08C64.8471 31.08 64.0578 30.8987 63.3751 30.536C62.6925 30.1733 62.1591 29.6613 61.7751 29C61.4018 28.3387 61.2151 27.576 61.2151 26.712C61.2151 25.8587 61.4018 25.1067 61.7751 24.456C62.1591 23.7947 62.6925 23.2827 63.3751 22.92C64.0578 22.5573 64.8471 22.376 65.7431 22.376ZM65.7431 24.152C65.0178 24.152 64.4311 24.392 63.9831 24.872C63.5351 25.352 63.3111 25.976 63.3111 26.744C63.3111 27.512 63.5351 28.136 63.9831 28.616C64.4311 29.096 65.0178 29.336 65.7431 29.336C66.4471 29.336 67.0231 29.096 67.4711 28.616C67.9191 28.136 68.1431 27.512 68.1431 26.744C68.1431 25.976 67.9191 25.352 67.4711 24.872C67.0231 24.392 66.4471 24.152 65.7431 24.152ZM77.198 22.36C78.1793 22.36 78.9527 22.6587 79.518 23.256C80.0833 23.8427 80.366 24.6427 80.366 25.656V31H78.27V26.264C78.27 25.6667 78.0993 25.1973 77.758 24.856C77.4167 24.504 76.9527 24.328 76.366 24.328C75.6727 24.3387 75.1233 24.5733 74.718 25.032C74.3233 25.4907 74.126 26.0773 74.126 26.792V31H72.046V22.44H74.126V24.04C74.7127 22.9413 75.7367 22.3813 77.198 22.36ZM87.7103 30.472C87.0276 30.888 86.3129 31.096 85.5663 31.096C84.8303 31.096 84.2276 30.8827 83.7582 30.456C83.2889 30.0187 83.0543 29.3787 83.0543 28.536V24.312H81.8543L81.8383 22.792H83.0543V20.44H85.1183V22.792H87.5663V24.312H85.1183V28.168C85.1183 28.5627 85.1929 28.8453 85.3423 29.016C85.4916 29.176 85.7156 29.256 86.0143 29.256C86.3343 29.256 86.7396 29.1387 87.2303 28.904L87.7103 30.472ZM94.5909 22.36C95.5722 22.36 96.3455 22.6587 96.9109 23.256C97.4762 23.8427 97.7589 24.6427 97.7589 25.656V31H95.6629V26.264C95.6629 25.6667 95.4922 25.1973 95.1509 24.856C94.8095 24.504 94.3455 24.328 93.7589 24.328C93.0655 24.3387 92.5162 24.5733 92.1109 25.032C91.7055 25.4907 91.5029 26.0773 91.5029 26.792V31H89.4229V19.128H91.5029V24.072C92.0895 22.952 93.1189 22.3813 94.5909 22.36Z" fill="white"/>
</g>
<defs>
<filter id="filter0_d" x="-68" y="-44" width="250" height="185" filterUnits="userSpaceOnUse" color-interpolation-filters="sRGB">
<feFlood flood-opacity="0" result="BackgroundImageFix"/>
<feColorMatrix in="SourceAlpha" type="matrix" values="0 0 0 0 0 0 0 0 0 0 0 0 0 0 0 0 0 0 127 0" result="hardAlpha"/>
<feOffset dx="-8" dy="16"/>
<feGaussianBlur stdDeviation="30"/>
<feColorMatrix type="matrix" values="0 0 0 0 0.322856 0 0 0 0 0.446289 0 0 0 0 0.545035 0 0 0 0.24 0"/>
<feBlend mode="normal" in2="BackgroundImageFix" result="effect1_dropShadow"/>
<feBlend mode="normal" in="SourceGraphic" in2="effect1_dropShadow" result="shape"/>
</filter>
<clipPath id="clip0">
<rect width="130" height="65" fill="white"/>
</clipPath>
</defs>
</svg>
